<svg width="18" height="16" viewBox="0 0 18 16" fill="none" xmlns="http://www.w3.org/2000/svg">
<g id="Iconly/Light/3 User">
<g id="3 User">
<path id="Stroke 1" d="M13.7369 6.65289C14.8379 6.49907 15.6855 5.56049 15.6879 4.42336C15.6879 3.30271 14.8663 2.37354 13.789 2.19775" stroke="#A6AEBB" stroke-width="1.2" stroke-linecap="round" stroke-linejoin="round"/>
<path id="Stroke 3" d="M15.1895 9.28516C16.2558 9.44368 17 9.81488 17 10.58C17 11.1066 16.6496 11.4488 16.0829 11.6638" stroke="#A6AEBB" stroke-width="1.2" stroke-linecap="round" stroke-linejoin="round"/>
<path id="Stroke 5" fill-rule="evenodd" clip-rule="evenodd" d="M9.00034 9.60986C6.46378 9.60986 4.29736 9.99205 4.29736 11.5184C4.29736 13.044 6.45036 13.4372 9.00034 13.4372C11.5369 13.4372 13.7025 13.0589 13.7025 11.5318C13.7025 10.0046 11.5503 9.60986 9.00034 9.60986Z" stroke="#A6AEBB" stroke-width="1.2" stroke-linecap="round" stroke-linejoin="round"/>
<path id="Stroke 7" fill-rule="evenodd" clip-rule="evenodd" d="M8.99997 7.43108C10.6644 7.43108 12.014 6.08991 12.014 4.43404C12.014 2.77897 10.6644 1.43701 8.99997 1.43701C7.3355 1.43701 5.98592 2.77897 5.98592 4.43404C5.97961 6.08363 7.31892 7.42558 8.97787 7.43108H8.99997Z" stroke="#A6AEBB" stroke-width="1.2" stroke-linecap="round" stroke-linejoin="round"/>
<path id="Stroke 9" d="M4.26291 6.65289C3.16115 6.49907 2.31432 5.56049 2.31195 4.42336C2.31195 3.30271 3.13353 2.37354 4.21082 2.19775" stroke="#A6AEBB" stroke-width="1.2" stroke-linecap="round" stroke-linejoin="round"/>
<path id="Stroke 11" d="M2.81048 9.28502C1.74424 9.44354 1 9.81474 1 10.5799C1 11.1065 1.35042 11.4486 1.91708 11.6637" stroke="#A6AEBB" stroke-width="1.2" stroke-linecap="round" stroke-linejoin="round"/>
</g>
</g>
</svg>
