<svg width="18" height="18" viewBox="0 0 18 18" fill="none" xmlns="http://www.w3.org/2000/svg">
<g id="vuesax/linear/chart-square">
<g id="Group">
<path id="Vector" d="M7.58247 8.36252H5.59498C5.12248 8.36252 4.73999 8.74498 4.73999 9.21748V13.0575H7.58247V8.36252V8.36252Z" stroke="#C2C7D0" stroke-width="1.2" stroke-miterlimit="10" stroke-linecap="round" stroke-linejoin="round"/>
<path id="Vector_2" d="M9.57093 4.94998H8.43092C7.95842 4.94998 7.57593 5.33249 7.57593 5.80499V13.05H10.4184V5.80499C10.4184 5.33249 10.0434 4.94998 9.57093 4.94998Z" stroke="#C2C7D0" stroke-width="1.2" stroke-miterlimit="10" stroke-linecap="round" stroke-linejoin="round"/>
<path id="Vector_3" d="M12.4111 9.63748H10.4236V13.05H13.2661V10.4925C13.2586 10.02 12.8761 9.63748 12.4111 9.63748Z" stroke="#C2C7D0" stroke-width="1.2" stroke-miterlimit="10" stroke-linecap="round" stroke-linejoin="round"/>
</g>
<path id="Vector_4" d="M6.75 16.5H11.25C15 16.5 16.5 15 16.5 11.25V6.75C16.5 3 15 1.5 11.25 1.5H6.75C3 1.5 1.5 3 1.5 6.75V11.25C1.5 15 3 16.5 6.75 16.5Z" stroke="#C2C7D0" stroke-width="1.2" stroke-linecap="round" stroke-linejoin="round"/>
</g>
</svg>
