<svg width="19" height="18" viewBox="0 0 19 18" fill="none" xmlns="http://www.w3.org/2000/svg">
<path d="M9.50004 11.25C10.7427 11.25 11.75 10.2427 11.75 9.00005C11.75 7.75741 10.7427 6.75005 9.50004 6.75005C8.2574 6.75005 7.25004 7.75741 7.25004 9.00005C7.25004 10.2427 8.2574 11.25 9.50004 11.25Z" stroke="#B3B9C4" stroke-width="1.1875" stroke-miterlimit="10" stroke-linecap="round" stroke-linejoin="round"/>
<path d="M1.99984 9.65997V8.33997C1.99984 7.55997 2.63734 6.91497 3.42484 6.91497C4.78234 6.91497 5.33734 5.95497 4.65484 4.77747C4.26484 4.10247 4.49734 3.22497 5.17984 2.83497L6.47734 2.09247C7.06984 1.73997 7.83484 1.94997 8.18734 2.54247L8.26984 2.68497C8.94484 3.86247 10.0548 3.86247 10.7373 2.68497L10.8198 2.54247C11.1723 1.94997 11.9373 1.73997 12.5298 2.09247L13.8273 2.83497C14.5098 3.22497 14.7423 4.10247 14.3523 4.77747C13.6698 5.95497 14.2248 6.91497 15.5823 6.91497C16.3623 6.91497 17.0073 7.55247 17.0073 8.33997V9.65997C17.0073 10.44 16.3698 11.085 15.5823 11.085C14.2248 11.085 13.6698 12.045 14.3523 13.2225C14.7423 13.905 14.5098 14.775 13.8273 15.165L12.5298 15.9075C11.9373 16.26 11.1723 16.05 10.8198 15.4575L10.7373 15.315C10.0623 14.1375 8.95234 14.1375 8.26984 15.315L8.18734 15.4575C7.83484 16.05 7.06984 16.26 6.47734 15.9075L5.17984 15.165C4.49734 14.775 4.26484 13.8975 4.65484 13.2225C5.33734 12.045 4.78234 11.085 3.42484 11.085C2.63734 11.085 1.99984 10.44 1.99984 9.65997Z" stroke="#B3B9C4" stroke-width="1.1875" stroke-miterlimit="10" stroke-linecap="round" stroke-linejoin="round"/>
</svg>
