<svg width="22" height="20" viewBox="0 0 22 20" fill="none" xmlns="http://www.w3.org/2000/svg">
<path d="M15.8335 5.96667C15.7807 5.95834 15.7191 5.95834 15.6663 5.96667C14.4525 5.925 13.4849 4.98334 13.4849 3.81667C13.4849 2.625 14.4964 1.66667 15.7543 1.66667C17.0122 1.66667 18.0237 2.63334 18.0237 3.81667C18.015 4.98334 17.0474 5.925 15.8335 5.96667Z" stroke="#B3B9C4" stroke-width="1.1875" stroke-linecap="round" stroke-linejoin="round"/>
<path d="M14.9276 12.0333C16.1327 12.225 17.4609 12.025 18.3933 11.4333C19.6336 10.65 19.6336 9.36664 18.3933 8.58331C17.4521 7.99164 16.1063 7.79164 14.9012 7.99164" stroke="#B3B9C4" stroke-width="1.1875" stroke-linecap="round" stroke-linejoin="round"/>
<path d="M5.25123 5.96667C5.30401 5.95833 5.36558 5.95833 5.41836 5.96667C6.63225 5.925 7.59984 4.98333 7.59984 3.81667C7.59984 2.625 6.58827 1.66666 5.3304 1.66666C4.07253 1.66666 3.06095 2.63333 3.06095 3.81667C3.06975 4.98333 4.03734 5.925 5.25123 5.96667Z" stroke="#B3B9C4" stroke-width="1.1875" stroke-linecap="round" stroke-linejoin="round"/>
<path d="M6.1573 12.0333C4.95221 12.225 3.62397 12.025 2.69156 11.4333C1.45128 10.65 1.45128 9.36664 2.69156 8.58331C3.63276 7.99164 4.9786 7.79163 6.18369 7.99163" stroke="#B3B9C4" stroke-width="1.1875" stroke-linecap="round" stroke-linejoin="round"/>
<path d="M10.5556 12.1915C10.5028 12.1831 10.4413 12.1831 10.3885 12.1915C9.1746 12.1498 8.20701 11.2081 8.20701 10.0415C8.20701 8.84981 9.21858 7.89148 10.4765 7.89148C11.7343 7.89148 12.7459 8.85815 12.7459 10.0415C12.7371 11.2081 11.7695 12.1581 10.5556 12.1915Z" stroke="#B3B9C4" stroke-width="1.1875" stroke-linecap="round" stroke-linejoin="round"/>
<path d="M7.99572 14.8166C6.75544 15.5999 6.75544 16.8832 7.99572 17.6666C9.40313 18.5582 11.7078 18.5582 13.1152 17.6666C14.3554 16.8832 14.3554 15.5999 13.1152 14.8166C11.7166 13.9332 9.40313 13.9332 7.99572 14.8166Z" stroke="#B3B9C4" stroke-width="1.1875" stroke-linecap="round" stroke-linejoin="round"/>
</svg>
