<svg width="18" height="18" viewBox="0 0 18 18" fill="none" xmlns="http://www.w3.org/2000/svg">
<path d="M7.58264 8.3625H5.59514C5.12264 8.3625 4.74015 8.74497 4.74015 9.21747V13.0575H7.58264V8.3625V8.3625Z" stroke="#B3B9C4" stroke-width="1.2" stroke-miterlimit="10" stroke-linecap="round" stroke-linejoin="round"/>
<path d="M9.57093 4.94998H8.43092C7.95842 4.94998 7.57593 5.33249 7.57593 5.80499V13.05H10.4184V5.80499C10.4184 5.33249 10.0434 4.94998 9.57093 4.94998Z" stroke="#B3B9C4" stroke-width="1.2" stroke-miterlimit="10" stroke-linecap="round" stroke-linejoin="round"/>
<path d="M12.4112 9.63736H10.4237V13.0499H13.2662V10.4924C13.2587 10.0199 12.8762 9.63736 12.4112 9.63736Z" stroke="#B3B9C4" stroke-width="1.2" stroke-miterlimit="10" stroke-linecap="round" stroke-linejoin="round"/>
<path d="M6.74984 16.4998H11.2498C14.9998 16.4998 16.4998 14.9998 16.4998 11.2498V6.74983C16.4998 2.99983 14.9998 1.49983 11.2498 1.49983H6.74984C2.99984 1.49983 1.49984 2.99983 1.49984 6.74983V11.2498C1.49984 14.9998 2.99984 16.4998 6.74984 16.4998Z" stroke="#B3B9C4" stroke-width="1.2" stroke-linecap="round" stroke-linejoin="round"/>
</svg>
