<svg width="19" height="18" viewBox="0 0 19 18" fill="none" xmlns="http://www.w3.org/2000/svg">
<path d="M13.7369 7.65289C14.8379 7.49907 15.6855 6.56049 15.6879 5.42336C15.6879 4.30271 14.8663 3.37354 13.789 3.19775" stroke="#A6AEBB" stroke-width="1.2" stroke-linecap="round" stroke-linejoin="round"/>
<path d="M15.1895 10.2852C16.2558 10.4437 17 10.8149 17 11.58C17 12.1066 16.6496 12.4488 16.0829 12.6638" stroke="#A6AEBB" stroke-width="1.2" stroke-linecap="round" stroke-linejoin="round"/>
<path fill-rule="evenodd" clip-rule="evenodd" d="M9.00037 10.6099C6.4638 10.6099 4.29739 10.992 4.29739 12.5184C4.29739 14.044 6.45039 14.4372 9.00037 14.4372C11.5369 14.4372 13.7026 14.0589 13.7026 12.5318C13.7026 11.0046 11.5503 10.6099 9.00037 10.6099Z" stroke="#A6AEBB" stroke-width="1.2" stroke-linecap="round" stroke-linejoin="round"/>
<path fill-rule="evenodd" clip-rule="evenodd" d="M8.99999 8.43108C10.6645 8.43108 12.014 7.08991 12.014 5.43404C12.014 3.77897 10.6645 2.43701 8.99999 2.43701C7.33552 2.43701 5.98595 3.77897 5.98595 5.43404C5.97963 7.08363 7.31894 8.42558 8.97789 8.43108H8.99999Z" stroke="#A6AEBB" stroke-width="1.2" stroke-linecap="round" stroke-linejoin="round"/>
<path d="M4.26294 7.65289C3.16118 7.49907 2.31434 6.56049 2.31198 5.42336C2.31198 4.30271 3.13356 3.37354 4.21085 3.19775" stroke="#A6AEBB" stroke-width="1.2" stroke-linecap="round" stroke-linejoin="round"/>
<path d="M2.81048 10.285C1.74424 10.4435 1 10.8147 1 11.5799C1 12.1065 1.35042 12.4486 1.91708 12.6636" stroke="#A6AEBB" stroke-width="1.2" stroke-linecap="round" stroke-linejoin="round"/>
</svg>
