<svg width="18" height="18" viewBox="0 0 18 18" fill="none" xmlns="http://www.w3.org/2000/svg">
<path fill-rule="evenodd" clip-rule="evenodd" d="M2.33343 10.2993C2.33343 10.5685 2.10942 10.787 1.83348 10.787C1.55753 10.787 1.33353 10.5685 1.33353 10.2993V5.47627C1.33353 3.92707 2.6256 2.66669 4.2144 2.66669H7.37837C8.97041 2.66669 10.2657 3.93024 10.2657 5.48323V6.07289C10.2657 6.34143 10.0417 6.55994 9.76578 6.55994C9.48984 6.55994 9.26583 6.34143 9.26583 6.07289V5.48323C9.26583 4.46733 8.41917 3.64206 7.37837 3.64206H4.2144C3.17685 3.64206 2.33343 4.46543 2.33343 5.47627V10.2993ZM9.26564 11.9278C9.26564 11.6586 9.48964 11.4401 9.76559 11.4401C10.0415 11.4401 10.2655 11.6586 10.2655 11.9278V12.5238C10.2655 14.073 8.97346 15.3334 7.38466 15.3334H4.22005C2.62866 15.3334 1.33333 14.0698 1.33333 12.5168C1.33333 12.2476 1.55734 12.0298 1.83328 12.0298C2.10923 12.0298 2.33323 12.2476 2.33323 12.5168C2.33323 13.5327 3.1799 14.358 4.22005 14.358H7.38466C8.42222 14.358 9.26564 13.5352 9.26564 12.5238V11.9278ZM14.6289 8.81394C14.5516 8.6309 14.3691 8.51183 14.1666 8.51183H6.36607C6.09012 8.51183 5.86547 8.73097 5.86547 9.00015C5.86547 9.26932 6.09012 9.48783 6.36607 9.48783H12.9563L11.9168 10.4974C11.7207 10.6874 11.7207 10.9959 11.9155 11.1871C12.0129 11.2828 12.1415 11.3309 12.2694 11.3309C12.3973 11.3309 12.5245 11.2828 12.6226 11.1884L14.5198 9.34596C14.6626 9.20662 14.7061 8.99635 14.6289 8.81394ZM12.7479 8.10717C12.6206 8.10717 12.4934 8.05967 12.396 7.96594L11.9174 7.50422C11.7214 7.31484 11.7201 7.00576 11.9142 6.81512C12.109 6.62258 12.4245 6.62132 12.6213 6.81132L13.0991 7.27241C13.2959 7.46242 13.2972 7.77086 13.103 7.96214C13.005 8.05841 12.8764 8.10717 12.7479 8.10717Z" fill="#B3B9C4"/>
</svg>
