<svg width="22" height="20" viewBox="0 0 22 20" fill="none" xmlns="http://www.w3.org/2000/svg">
<g id="vuesax/linear/people">
<g id="people">
<g id="Group">
<path id="Vector" d="M15.8334 5.96667C15.7806 5.95834 15.719 5.95834 15.6662 5.96667C14.4523 5.92501 13.4847 4.98334 13.4847 3.81667C13.4847 2.62501 14.4963 1.66667 15.7542 1.66667C17.0121 1.66667 18.0236 2.63334 18.0236 3.81667C18.0148 4.98334 17.0472 5.92501 15.8334 5.96667Z" stroke="#B3B9C4" stroke-width="1.1875" stroke-linecap="round" stroke-linejoin="round"/>
<path id="Vector_2" d="M14.9273 12.0333C16.1324 12.225 17.4607 12.025 18.3931 11.4333C19.6334 10.65 19.6334 9.36668 18.3931 8.58334C17.4519 7.99168 16.106 7.79167 14.9009 7.99167" stroke="#B3B9C4" stroke-width="1.1875" stroke-linecap="round" stroke-linejoin="round"/>
</g>
<g id="Group_2">
<path id="Vector_3" d="M5.25138 5.96667C5.30415 5.95834 5.36573 5.95834 5.4185 5.96667C6.63239 5.92501 7.59999 4.98334 7.59999 3.81667C7.59999 2.62501 6.58841 1.66667 5.33054 1.66667C4.07267 1.66667 3.0611 2.63334 3.0611 3.81667C3.06989 4.98334 4.03749 5.92501 5.25138 5.96667Z" stroke="#B3B9C4" stroke-width="1.1875" stroke-linecap="round" stroke-linejoin="round"/>
<path id="Vector_4" d="M6.15736 12.0333C4.95227 12.225 3.62403 12.025 2.69162 11.4333C1.45134 10.65 1.45134 9.36668 2.69162 8.58334C3.63283 7.99168 4.97866 7.79167 6.18375 7.99167" stroke="#B3B9C4" stroke-width="1.1875" stroke-linecap="round" stroke-linejoin="round"/>
</g>
<g id="Group_3">
<path id="Vector_5" d="M10.5555 12.1917C10.5027 12.1833 10.4412 12.1833 10.3884 12.1917C9.1745 12.15 8.20691 11.2083 8.20691 10.0417C8.20691 8.85001 9.21848 7.89167 10.4764 7.89167C11.7342 7.89167 12.7458 8.85834 12.7458 10.0417C12.737 11.2083 11.7694 12.1583 10.5555 12.1917Z" stroke="#B3B9C4" stroke-width="1.1875" stroke-linecap="round" stroke-linejoin="round"/>
<path id="Vector_6" d="M7.99582 14.8167C6.75554 15.6 6.75554 16.8833 7.99582 17.6667C9.40323 18.5583 11.7079 18.5583 13.1153 17.6667C14.3555 16.8833 14.3555 15.6 13.1153 14.8167C11.7167 13.9333 9.40323 13.9333 7.99582 14.8167Z" stroke="#B3B9C4" stroke-width="1.1875" stroke-linecap="round" stroke-linejoin="round"/>
</g>
</g>
</g>
</svg>
