<svg width="75" height="25" viewBox="0 0 75 25" fill="none" xmlns="http://www.w3.org/2000/svg">
<circle cx="9" cy="12.5" r="9" fill="#FF8577"/>
<circle cx="13.25" cy="12.5" r="4.75" fill="#FF8577"/>
<circle cx="13.25" cy="12.5" r="4.75" fill="#FFC700"/>
<path d="M29.292 19V5.7H31.724V11.229H37.69V5.7H40.122V19H37.69V13.205H31.724V19H29.292ZM46.184 19.228C45.006 19.228 44.094 18.8607 43.448 18.126C42.8147 17.3913 42.498 16.3147 42.498 14.896V9.576H44.911V14.668C44.911 15.4787 45.0757 16.0993 45.405 16.53C45.7344 16.9607 46.2537 17.176 46.963 17.176C47.6344 17.176 48.1854 16.9353 48.616 16.454C49.0594 15.9727 49.281 15.3013 49.281 14.44V9.576H51.713V19H49.566L49.376 17.404C49.0847 17.9613 48.6604 18.4047 48.103 18.734C47.5584 19.0633 46.9187 19.228 46.184 19.228ZM54.2096 19V5.32H56.6416V19H54.2096ZM59.1266 19V5.32H61.5586V19H59.1266ZM68.6226 19.228C67.6726 19.228 66.8303 19.0253 66.0956 18.62C65.3609 18.2147 64.7846 17.6447 64.3666 16.91C63.9486 16.1753 63.7396 15.3267 63.7396 14.364C63.7396 13.3887 63.9423 12.521 64.3476 11.761C64.7656 11.001 65.3356 10.412 66.0576 9.994C66.7923 9.56333 67.6536 9.348 68.6416 9.348C69.5663 9.348 70.3833 9.55067 71.0926 9.956C71.8019 10.3613 72.3529 10.9187 72.7456 11.628C73.1509 12.3247 73.3536 13.1037 73.3536 13.965C73.3536 14.1043 73.3473 14.25 73.3346 14.402C73.3346 14.554 73.3283 14.7123 73.3156 14.877H66.1526C66.2033 15.6117 66.4566 16.188 66.9126 16.606C67.3813 17.024 67.9449 17.233 68.6036 17.233C69.0976 17.233 69.5093 17.1253 69.8386 16.91C70.1806 16.682 70.4339 16.3907 70.5986 16.036H73.0686C72.8913 16.6313 72.5936 17.176 72.1756 17.67C71.7703 18.1513 71.2636 18.5313 70.6556 18.81C70.0603 19.0887 69.3826 19.228 68.6226 19.228ZM68.6416 11.324C68.0463 11.324 67.5206 11.495 67.0646 11.837C66.6086 12.1663 66.3173 12.673 66.1906 13.357H70.8836C70.8456 12.7363 70.6176 12.2423 70.1996 11.875C69.7816 11.5077 69.2623 11.324 68.6416 11.324Z" fill="url(#paint0_linear_646_13646)"/>
<defs>
<linearGradient id="paint0_linear_646_13646" x1="71.1225" y1="1.92308" x2="31.1455" y2="22.3336" gradientUnits="userSpaceOnUse">
<stop stop-color="#FF8577"/>
<stop offset="1" stop-color="#699BF7"/>
</linearGradient>
</defs>
</svg>
